<?xml version="1.0" encoding="UTF-8"?>
<svg version="1.1" viewBox="243 96 832 658" width="208" height="165" xmlns="http://www.w3.org/2000/svg">
<path transform="translate(1009,101)" d="m0 0h59l-6 8-10 12-8 10-13 16-11 12-8 10-11 13-9 11-11 13-9 11-12 14-8 10-11 13-9 11-14 17-7 8-11 13-13 16-9 10-9 11-11 13-9 11-11 13-11 14-24 28-8 9-11 9-10 8-16 9-16 6-20 4-13 1-96 1-12 3-11 7-10 9-14 17-8 10-9 10-9 11-8 10-11 13-7 8-10 13-9 11-10 12-7 8-14 17-11 13-7 9-9 10-9 11-12 14-10 13-11 12-9 9-13 10-15 9-16 7-16 4-19 3h-53l2-5 12-14 11-13 11-14 9-10 9-11 11-13 9-11 11-13 16-20 13-15 18-22 10-11 9-11 11-13 9-11 10-11 7-9 7-8 7-9 9-10 10-13 9-10 9-11 11-13 8-10 7-7 3-4h2l1-3 8-7 13-10 17-9 17-6 18-4 106-1 15-4 8-4 20-20 7-9 11-13 9-12 12-14 7-8 11-13 11-14 10-11 9-11 8-10 9-11 4-5 5-5 9-12h2l2-4 9-11 9-10 16-20 12-14 15-16 7-7 19-13 16-8 15-5z" fill="#1B1B1D"/>
<path transform="translate(851,101)" d="m0 0h57l-2 4-5 6-10 13-10 12-9 11-8 9-7 9-12 14-9 11-8 9-8 10-8 9-8 10-14 18-12 14-8 10-11 14-13 12-9 8-14 10-15 7-18 6-23 2-100 1-13 4-10 6-5 5h-2l-2 4-9 10-7 8-9 11-8 10-14 17-9 11-9 10-7 8-13 16-7 8-13 16-7 8-22 28-12 13-6 7-8 7-10 8-14 8-16 7-16 4-9 2-9 1h-53l1-4h2l2-4 8-10 9-11 11-14 12-14 18-22 11-13 9-11 8-9 8-10 10-12 7-8 13-16 11-14 9-10 28-34 12-14 11-13 18-22 11-12 11-9 10-8 14-8 10-4 23-6 12-2 103-1 18-6 11-9 10-11 10-13 12-14 9-11 9-10 10-13 10-11 7-8 9-11 12-10 15-10 13-6 18-6z" fill="#1B1B1D"/>
<path transform="translate(1014,287)" d="m0 0h56l-6 8-11 14-12 14-11 14-10 11-9 11-10 12-10 13-10 10-7 9-12 14-8 10-12 14-8 10-11 13-8 10-12 14-7 9-8 10-12 14-9 11-11 13-7 8-18 18-14 10-16 8-16 6-18 4-20 2h-210l2-5 18-24 11-13h2l1-3 14-11 7-5 14-7 17-6 11-2 13-1 98-1 10-1 12-5 11-8 9-10 9-11 9-10 10-13 8-9 9-11 11-13 9-11 4-5 5-5 7-9 10-12 9-11 7-8 9-11 10-11 11-14 14-15 11-10 21-12 15-6 18-4z" fill="#1B1B1D"/>
</svg>
